<?xml version="1.0" standalone="no"?>
<svg viewBox="0 0 200 200" xmlns="http://www.w3.org/2000/svg">
  <path fill="#CEB8F1" d="M42.8,-61.9C54.3,-59.2,61.7,-45.4,69.7,-30.9C77.7,-16.5,86.4,-1.4,82.1,10.1C77.8,21.6,60.5,29.5,49.1,42.2C37.6,55,32,72.5,20.2,81.9C8.4,91.3,-9.6,92.7,-22.1,84.7C-34.6,76.7,-41.7,59.5,-49.9,45.6C-58.2,31.8,-67.6,21.5,-72.5,8.5C-77.3,-4.4,-77.5,-20,-69.2,-28.9C-61,-37.9,-44.2,-40.3,-31.2,-42.4C-18.3,-44.4,-9.1,-46.1,3.3,-51.2C15.7,-56.3,31.3,-64.7,42.8,-61.9Z" transform="translate(100 100)" />
</svg>
